<svg width="138" height="64" viewBox="0 0 138 64" fill="none" xmlns="http://www.w3.org/2000/svg">
<rect x="32" width="32" height="32" fill="#FF5829"/>
<rect y="32" width="32" height="32" fill="#FF5829" fill-opacity="0.4"/>
<rect x="32" y="32" width="32" height="32" fill="#FF5829" fill-opacity="0.7"/>
<path d="M80.2734 17H77.2344V5.57812H83.9844V8.05469H80.2734V10.2344H83.6953V12.7109H80.2734V17ZM88.7344 17H85.6797V4.84375H88.7344V17ZM89.7812 8.14844H93L94.5 13.2266C94.5208 13.2995 94.5417 13.3906 94.5625 13.5C94.5833 13.6042 94.6016 13.7161 94.6172 13.8359C94.6328 13.9557 94.6432 14.0729 94.6484 14.1875H94.7109C94.737 13.974 94.7656 13.7891 94.7969 13.6328C94.8333 13.4714 94.8672 13.3411 94.8984 13.2422L96.4375 8.14844H99.5547L96.0547 17.5625C95.7839 18.2812 95.4688 18.8828 95.1094 19.3672C94.7552 19.8568 94.3151 20.224 93.7891 20.4688C93.2682 20.7188 92.6198 20.8438 91.8438 20.8438C91.5625 20.8438 91.3203 20.8281 91.1172 20.7969C90.9193 20.7708 90.7448 20.7422 90.5938 20.7109V18.3125C90.7083 18.3333 90.849 18.3542 91.0156 18.375C91.1823 18.3958 91.3568 18.4062 91.5391 18.4062C91.8776 18.4062 92.151 18.3385 92.3594 18.2031C92.5729 18.0677 92.7474 17.888 92.8828 17.6641C93.0182 17.4453 93.1354 17.2083 93.2344 16.9531L93.2656 16.875L89.7812 8.14844Z" fill="white"/>
<path d="M82.2109 57L79.875 48.7734H79.8047C79.8255 48.987 79.8464 49.276 79.8672 49.6406C79.8932 50.0052 79.9167 50.3984 79.9375 50.8203C79.9583 51.2422 79.9688 51.6484 79.9688 52.0391V57H77.2344V45.5781H81.3438L83.7266 53.6875H83.7891L86.125 45.5781H90.2422V57H87.4062V51.9922C87.4062 51.6328 87.4115 51.2474 87.4219 50.8359C87.4375 50.4193 87.4531 50.0286 87.4688 49.6641C87.4896 49.2943 87.5078 49.0026 87.5234 48.7891H87.4531L85.1484 57H82.2109ZM100.977 52.5547C100.977 53.2943 100.875 53.9505 100.672 54.5234C100.469 55.0964 100.174 55.5781 99.7891 55.9688C99.4036 56.3594 98.9375 56.6562 98.3906 56.8594C97.8438 57.0573 97.2266 57.1562 96.5391 57.1562C95.8984 57.1562 95.3099 57.0573 94.7734 56.8594C94.2422 56.6562 93.7786 56.3594 93.3828 55.9688C92.987 55.5781 92.6797 55.0964 92.4609 54.5234C92.2474 53.9505 92.1406 53.2943 92.1406 52.5547C92.1406 51.5755 92.3177 50.7474 92.6719 50.0703C93.0312 49.3932 93.5417 48.8776 94.2031 48.5234C94.8698 48.1693 95.6641 47.9922 96.5859 47.9922C97.4349 47.9922 98.1901 48.1693 98.8516 48.5234C99.513 48.8776 100.031 49.3932 100.406 50.0703C100.786 50.7474 100.977 51.5755 100.977 52.5547ZM95.2422 52.5547C95.2422 53.0599 95.2865 53.487 95.375 53.8359C95.4635 54.1797 95.6042 54.4427 95.7969 54.625C95.9948 54.8021 96.2526 54.8906 96.5703 54.8906C96.888 54.8906 97.1406 54.8021 97.3281 54.625C97.5156 54.4427 97.651 54.1797 97.7344 53.8359C97.8229 53.487 97.8672 53.0599 97.8672 52.5547C97.8672 52.0495 97.8229 51.6276 97.7344 51.2891C97.651 50.9505 97.513 50.6953 97.3203 50.5234C97.1328 50.3516 96.8776 50.2656 96.5547 50.2656C96.0911 50.2656 95.7552 50.4583 95.5469 50.8438C95.3438 51.2292 95.2422 51.7995 95.2422 52.5547ZM105.047 57L101.672 48.1484H104.859L106.359 53.3828C106.375 53.4297 106.401 53.5495 106.438 53.7422C106.479 53.9349 106.5 54.1146 106.5 54.2812H106.555C106.555 54.1042 106.573 53.9349 106.609 53.7734C106.646 53.612 106.674 53.487 106.695 53.3984L108.266 48.1484H111.445L108.07 57H105.047ZM116.492 47.9922C117.352 47.9922 118.094 48.1432 118.719 48.4453C119.344 48.7422 119.826 49.1901 120.164 49.7891C120.503 50.388 120.672 51.138 120.672 52.0391V53.3984H115.211C115.237 53.862 115.409 54.2422 115.727 54.5391C116.049 54.8359 116.523 54.9844 117.148 54.9844C117.701 54.9844 118.206 54.9297 118.664 54.8203C119.128 54.7109 119.604 54.5417 120.094 54.3125V56.5078C119.667 56.7318 119.201 56.8958 118.695 57C118.19 57.1042 117.552 57.1562 116.781 57.1562C115.891 57.1562 115.094 56.9974 114.391 56.6797C113.688 56.362 113.133 55.8698 112.727 55.2031C112.326 54.5365 112.125 53.6797 112.125 52.6328C112.125 51.5703 112.307 50.6979 112.672 50.0156C113.036 49.3281 113.547 48.8203 114.203 48.4922C114.859 48.1589 115.622 47.9922 116.492 47.9922ZM116.602 50.0703C116.242 50.0703 115.94 50.1849 115.695 50.4141C115.456 50.638 115.315 50.9922 115.273 51.4766H117.898C117.893 51.2161 117.841 50.9792 117.742 50.7656C117.643 50.5521 117.497 50.3828 117.305 50.2578C117.117 50.1328 116.883 50.0703 116.602 50.0703ZM127.742 47.9922C127.909 47.9922 128.083 48.0052 128.266 48.0312C128.448 48.0521 128.583 48.0703 128.672 48.0859L128.398 50.9688C128.299 50.9427 128.172 50.9219 128.016 50.9062C127.859 50.8854 127.641 50.875 127.359 50.875C127.167 50.875 126.961 50.8932 126.742 50.9297C126.523 50.9661 126.315 51.0443 126.117 51.1641C125.924 51.2786 125.766 51.4557 125.641 51.6953C125.516 51.9297 125.453 52.2474 125.453 52.6484V57H122.398V48.1484H124.672L125.148 49.5625H125.297C125.458 49.2708 125.664 49.0078 125.914 48.7734C126.169 48.5339 126.453 48.3438 126.766 48.2031C127.083 48.0625 127.409 47.9922 127.742 47.9922ZM136.492 54.2812C136.492 54.8438 136.367 55.3411 136.117 55.7734C135.867 56.2057 135.466 56.5443 134.914 56.7891C134.367 57.0339 133.646 57.1562 132.75 57.1562C132.12 57.1562 131.555 57.1224 131.055 57.0547C130.56 56.987 130.057 56.8568 129.547 56.6641V54.2188C130.104 54.474 130.672 54.6589 131.25 54.7734C131.828 54.8828 132.284 54.9375 132.617 54.9375C132.961 54.9375 133.211 54.901 133.367 54.8281C133.529 54.75 133.609 54.6354 133.609 54.4844C133.609 54.3542 133.555 54.2448 133.445 54.1562C133.341 54.0625 133.151 53.9557 132.875 53.8359C132.604 53.7161 132.221 53.5547 131.727 53.3516C131.237 53.1484 130.828 52.9271 130.5 52.6875C130.177 52.4479 129.935 52.1615 129.773 51.8281C129.612 51.4948 129.531 51.0859 129.531 50.6016C129.531 49.737 129.865 49.0859 130.531 48.6484C131.198 48.2109 132.081 47.9922 133.18 47.9922C133.763 47.9922 134.312 48.0573 134.828 48.1875C135.344 48.3125 135.878 48.4974 136.43 48.7422L135.594 50.7109C135.156 50.513 134.714 50.3542 134.266 50.2344C133.818 50.1146 133.461 50.0547 133.195 50.0547C132.956 50.0547 132.771 50.0859 132.641 50.1484C132.51 50.2109 132.445 50.3021 132.445 50.4219C132.445 50.5312 132.49 50.6276 132.578 50.7109C132.672 50.7943 132.846 50.8906 133.102 51C133.357 51.1094 133.729 51.263 134.219 51.4609C134.734 51.6693 135.159 51.8932 135.492 52.1328C135.831 52.3672 136.081 52.6536 136.242 52.9922C136.409 53.3307 136.492 53.7604 136.492 54.2812Z" fill="white"/>
<path d="M80.9766 24.5781C82.013 24.5781 82.875 24.7057 83.5625 24.9609C84.25 25.2109 84.7656 25.5859 85.1094 26.0859C85.4583 26.5859 85.6328 27.2083 85.6328 27.9531C85.6328 28.4167 85.5547 28.8385 85.3984 29.2188C85.2422 29.599 85.0182 29.9401 84.7266 30.2422C84.4401 30.5391 84.0964 30.7995 83.6953 31.0234L87.0234 36H83.5234L81.1016 31.8438H80.3203V36H77.2344V24.5781H80.9766ZM80.9297 26.9141H80.3203V29.5234H80.8984C81.3724 29.5234 81.7604 29.4193 82.0625 29.2109C82.3646 29.0026 82.5156 28.6302 82.5156 28.0938C82.5156 27.724 82.3906 27.4349 82.1406 27.2266C81.8906 27.0182 81.487 26.9141 80.9297 26.9141ZM90.9531 27.1484V36H87.8984V27.1484H90.9531ZM89.4375 23.5859C89.875 23.5859 90.2552 23.6771 90.5781 23.8594C90.9062 24.0417 91.0703 24.4036 91.0703 24.9453C91.0703 25.4714 90.9062 25.8281 90.5781 26.0156C90.2552 26.1979 89.875 26.2891 89.4375 26.2891C88.9896 26.2891 88.6068 26.1979 88.2891 26.0156C87.9766 25.8281 87.8203 25.4714 87.8203 24.9453C87.8203 24.4036 87.9766 24.0417 88.2891 23.8594C88.6068 23.6771 88.9896 23.5859 89.4375 23.5859ZM96.1094 39.8438C94.8542 39.8438 93.8854 39.6328 93.2031 39.2109C92.526 38.7943 92.1875 38.1927 92.1875 37.4062C92.1875 36.8802 92.3516 36.4453 92.6797 36.1016C93.0078 35.7578 93.5 35.5104 94.1562 35.3594C93.8854 35.2448 93.6484 35.0599 93.4453 34.8047C93.2474 34.5495 93.1484 34.2969 93.1484 34.0469C93.1484 33.7708 93.224 33.5286 93.375 33.3203C93.526 33.1068 93.8411 32.8542 94.3203 32.5625C93.862 32.3594 93.5 32.0417 93.2344 31.6094C92.974 31.1771 92.8438 30.651 92.8438 30.0312C92.8438 29.3906 92.9896 28.8438 93.2812 28.3906C93.5781 27.9375 94.0078 27.5911 94.5703 27.3516C95.138 27.112 95.8281 26.9922 96.6406 26.9922C96.75 26.9922 96.9167 27.0026 97.1406 27.0234C97.3646 27.0391 97.5911 27.0599 97.8203 27.0859C98.0495 27.1068 98.2266 27.1276 98.3516 27.1484H101.438V28.625L100.227 29.0703C100.31 29.2214 100.372 29.3854 100.414 29.5625C100.456 29.7396 100.477 29.9271 100.477 30.125C100.477 31.0781 100.141 31.8177 99.4688 32.3438C98.8021 32.8698 97.8047 33.1328 96.4766 33.1328C96.1484 33.1328 95.888 33.112 95.6953 33.0703C95.6589 33.138 95.6302 33.2057 95.6094 33.2734C95.5938 33.3359 95.5859 33.3958 95.5859 33.4531C95.5859 33.5729 95.6562 33.6693 95.7969 33.7422C95.9427 33.8099 96.1172 33.8568 96.3203 33.8828C96.5286 33.9089 96.7266 33.9219 96.9141 33.9219H98.3828C99.3776 33.9219 100.122 34.1302 100.617 34.5469C101.112 34.9635 101.359 35.5911 101.359 36.4297C101.359 37.5078 100.898 38.3464 99.9766 38.9453C99.0599 39.5443 97.7708 39.8438 96.1094 39.8438ZM96.2578 37.9375C96.6276 37.9375 97 37.9036 97.375 37.8359C97.75 37.7734 98.0651 37.6693 98.3203 37.5234C98.5755 37.3776 98.7031 37.1849 98.7031 36.9453C98.7031 36.763 98.6276 36.625 98.4766 36.5312C98.3255 36.4427 98.1302 36.3828 97.8906 36.3516C97.651 36.3203 97.3984 36.3047 97.1328 36.3047H95.9453C95.7266 36.3047 95.526 36.3385 95.3438 36.4062C95.1667 36.4792 95.026 36.5755 94.9219 36.6953C94.8177 36.8151 94.7656 36.9505 94.7656 37.1016C94.7656 37.3516 94.901 37.5521 95.1719 37.7031C95.4427 37.8594 95.8047 37.9375 96.2578 37.9375ZM96.6719 31.4062C96.9635 31.4062 97.1875 31.2943 97.3438 31.0703C97.5052 30.8464 97.5859 30.5104 97.5859 30.0625C97.5859 29.6042 97.5104 29.2604 97.3594 29.0312C97.2083 28.8021 96.9792 28.6875 96.6719 28.6875C96.3542 28.6875 96.1172 28.8021 95.9609 29.0312C95.8047 29.2552 95.7266 29.5938 95.7266 30.0469C95.7266 30.5 95.8047 30.8411 95.9609 31.0703C96.1172 31.2943 96.3542 31.4062 96.6719 31.4062ZM105.844 23.8438V25.5703C105.844 26.2266 105.828 26.7786 105.797 27.2266C105.771 27.6693 105.745 28.0078 105.719 28.2422H105.859C106.052 27.9349 106.271 27.6901 106.516 27.5078C106.76 27.3255 107.031 27.1953 107.328 27.1172C107.625 27.0339 107.948 26.9922 108.297 26.9922C108.88 26.9922 109.406 27.1042 109.875 27.3281C110.349 27.5521 110.727 27.9036 111.008 28.3828C111.289 28.8568 111.43 29.4766 111.43 30.2422V36H108.359V31.1719C108.359 30.5833 108.273 30.1406 108.102 29.8438C107.93 29.5417 107.664 29.3906 107.305 29.3906C106.935 29.3906 106.643 29.4974 106.43 29.7109C106.216 29.9193 106.065 30.2266 105.977 30.6328C105.888 31.0339 105.844 31.526 105.844 32.1094V36H102.789V23.8438H105.844ZM117.844 33.7422C118.12 33.7422 118.372 33.7135 118.602 33.6562C118.831 33.599 119.07 33.526 119.32 33.4375V35.6641C118.987 35.8099 118.633 35.9271 118.258 36.0156C117.888 36.1094 117.414 36.1562 116.836 36.1562C116.263 36.1562 115.758 36.0677 115.32 35.8906C114.883 35.7083 114.542 35.3958 114.297 34.9531C114.057 34.5052 113.938 33.8828 113.938 33.0859V29.4375H112.867V28.1953L114.227 27.2344L115.016 25.375H117.016V27.1484H119.188V29.4375H117.016V32.8828C117.016 33.1693 117.089 33.3854 117.234 33.5312C117.38 33.6719 117.583 33.7422 117.844 33.7422Z" fill="white"/>
</svg>
